<svg width="40" height="40" viewBox="0 0 40 40" fill="none" xmlns="http://www.w3.org/2000/svg">
<path d="M5 20.8333H15V22.5H5V20.8333Z" fill="black"/>
<path d="M5 15.8334H20V17.5H5V15.8334Z" fill="black"/>
<path d="M3.33333 2.50002H36.6667C38.5 2.50002 40 3.99998 40 5.83336V27.5C40 29.3333 38.5 30.8334 36.6667 30.8334H33.3333V37.5L29.1667 33.3334L25.0001 37.5V30.8334H3.33333C1.50004 30.8334 0 29.3333 0 27.5V5.83336C0 3.99998 1.50004 2.50002 3.33333 2.50002ZM26.6667 33.4999L29.1667 30.9999L31.6668 33.4999V27C30.8335 27.3333 30.0001 27.4999 29.1667 27.4999C28.3333 27.4999 27.5 27.3333 26.6667 27V33.4999ZM29.1667 25.8334C31.5 25.8334 33.3333 24.0001 33.3333 21.6667C33.3333 19.3334 31.5 17.5001 29.1667 17.5001C26.8335 17.5001 25.0001 19.3334 25.0001 21.6667C25.0001 24.0001 26.8334 25.8334 29.1667 25.8334ZM1.66667 27.4999C1.66667 28.4999 2.33333 29.1666 3.33333 29.1666H25V25.6666C24 24.6666 23.3333 23.1666 23.3333 21.6666C23.3333 18.5 26 15.8333 29.1667 15.8333C32.3334 15.8333 35.0001 18.4999 35.0001 21.6666C35.0001 23.3333 34.3334 24.6666 33.3334 25.6666V29.1666H36.6667C37.6667 29.1666 38.3333 28.3333 38.3333 27.4999V5.83336C38.3333 4.83336 37.6667 4.16669 36.6667 4.16669H3.33333C2.33333 4.16669 1.66667 4.99998 1.66667 5.83336V27.4999Z" fill="black"/>
<path d="M5 10.8333H35V12.5H5V10.8333Z" fill="black"/>
</svg>
