<svg width="43" height="43" viewBox="0 0 43 43" fill="none" xmlns="http://www.w3.org/2000/svg">
<path d="M18.1424 33.8451C18.2729 27.8443 18.0286 22.1992 18.042 21.8465C18.0614 21.3441 14.7325 22.0537 14.3221 21.6408C13.9118 21.2279 13.6758 18.0852 14.2204 17.8145C14.7649 17.5438 17.2194 18.035 17.7373 17.7117C18.2553 17.3885 15.4887 6.917 26.8391 9.23106C27.1495 9.38633 26.8133 12.8897 26.6323 13.1611C26.4512 13.4326 24.1502 12.8121 22.9092 13.7816C21.6682 14.7512 22.1852 17.427 22.4438 17.608C22.7024 17.7891 26.3868 17.6467 26.6323 17.9184C26.8778 18.19 26.9166 21.5899 26.6323 21.8484C26.3479 22.107 22.5661 21.3777 22.1852 21.6418C21.8715 21.8592 23.0102 33.368 22.6848 33.824C22.3594 34.2801 21.1748 34.2406 20.427 34.2588" stroke="black" stroke-miterlimit="10" stroke-linecap="round" stroke-linejoin="round"/>
<path d="M21.6746 41.5307C33.5714 41.2088 42.7966 31.0857 42.0642 19.9541C41.349 9.08554 31.5134 0.889245 20.7902 1.25233C9.9193 1.6203 0.667347 10.7195 0.796253 21.6473C1.09879 38.726 17.4964 41.6883 18.2181 41.4814" stroke="black" stroke-miterlimit="10" stroke-linecap="round" stroke-linejoin="round"/>
</svg>
