<svg width="22" height="21" viewBox="0 0 22 21" fill="none" xmlns="http://www.w3.org/2000/svg">
<path d="M8.91898 18.3597L8.91882 18.3596C7.77513 17.5046 6.62949 16.5604 5.55663 15.552L5.55652 15.5518C3.17262 13.3097 1.44649 11.0375 0.78716 8.82292L0.78709 8.82269C0.599733 8.19227 0.5 7.56689 0.5 6.95173C0.5 4.05766 2.01634 1.87293 4.17942 1.00396C6.23646 0.177585 8.77893 0.579076 10.9959 2.51936C13.216 0.579698 15.7582 0.139603 17.8184 0.947712C19.9893 1.79927 21.5 3.98932 21.5 6.95173C21.5 7.56703 21.4002 8.19174 21.2119 8.82316C20.5524 11.0377 18.8255 13.3106 16.4425 15.5518M8.91898 18.3597L11.6864 18.7471M8.91898 18.3597C9.31944 18.6588 9.69178 18.9265 10.0286 19.1585C10.2302 19.2981 10.3779 19.3968 10.4611 19.4509L10.4613 19.451L10.7277 19.624L11.0005 19.8012L11.273 19.6236L11.538 19.4509M8.91898 18.3597L11.538 19.4509M16.4425 15.5518L16.1 15.1876M16.4425 15.5518L16.1 15.1876M16.4425 15.5518C15.3705 16.5604 14.2239 17.5055 13.0801 18.3598L13.0796 18.3602C12.6792 18.6583 12.3072 18.9258 11.9707 19.1584M16.1 15.1876C15.0436 16.1814 13.9118 17.1146 12.7809 17.9591L10.9955 3.19785C15.3636 -0.997959 21 1.38326 21 6.95173C21 7.5126 20.9091 8.08904 20.7327 8.68025C20.1109 10.7688 18.46 12.9679 16.1 15.1876ZM11.9707 19.1584L11.6864 18.7471M11.9707 19.1584C11.9708 19.1584 11.9708 19.1583 11.9709 19.1583L11.6864 18.7471M11.9707 19.1584C11.7692 19.2979 11.6216 19.3965 11.5382 19.4507L11.5385 19.4506L11.2655 19.0317M11.6864 18.7471C11.4873 18.8849 11.3437 18.9808 11.2655 19.0317M11.2655 19.0317L11.538 19.4509M11.2655 19.0317L11.538 19.4509M11.3648 4.79513L11.7121 4.42456C11.7121 4.42453 11.7121 4.42451 11.7121 4.42449C13.513 2.50333 15.4969 2.10828 16.9776 2.64454C18.4586 3.18093 19.5909 4.70292 19.5909 6.95173C19.5909 7.38297 19.5199 7.84079 19.3761 8.32565C18.8402 10.1253 17.3449 12.1468 15.102 14.2559L15.1019 14.256C14.0867 15.2113 12.9953 16.111 11.9018 16.927L11.9017 16.9272C11.7095 17.0707 11.4102 17.2924 11.1582 17.4788L11.0002 17.5956L10.7842 17.4358C10.5125 17.2347 10.2132 17.0129 10.0976 16.9265L10.0974 16.9264C9.00399 16.1095 7.91323 15.2096 6.89689 14.2549C4.6551 12.146 3.15981 10.1253 2.62301 8.32494C2.47996 7.83976 2.40912 7.38276 2.40912 6.95173C2.40912 4.70336 3.54136 3.18136 5.02244 2.64496C6.5031 2.10871 8.48705 2.50376 10.2879 4.42535L10.2882 4.4257L10.6355 4.79551L11.0004 5.1841L11.3648 4.79513Z" fill="#FF0202" stroke="#FF0000"/>
</svg>
