<svg width="70" height="69" viewBox="0 0 70 69" fill="none" xmlns="http://www.w3.org/2000/svg">
<path d="M34.9971 0L0 16.6349V27.3698H4.76086V69H7.67757V27.3698H62.3216V69H65.2383V27.3698H70V16.4954L34.9971 0ZM67.0833 24.4402H2.91671V18.4902L35.0029 3.23858L67.0834 18.3565V24.4402H67.0833Z" fill="black"/>
<path d="M33.3775 39.1885H20.0332V52.4096H33.3775V39.1885ZM30.4608 49.4801H22.9498V42.1181H30.4608V49.4801Z" fill="black"/>
<path d="M49.9673 39.1885H36.623V52.4096H49.9673V39.1885ZM47.0506 49.4801H39.5396V42.1181H47.0506V49.4801Z" fill="black"/>
<path d="M11.8926 68.1964H25.2376V54.9746H11.8926V68.1964ZM14.8091 57.9043H22.3209V65.2669H14.8091V57.9043Z" fill="black"/>
<path d="M28.3281 68.1964H41.6731V54.9746H28.3281V68.1964ZM31.2447 57.9043H38.7564V65.2669H31.2447V57.9043Z" fill="black"/>
<path d="M44.7637 68.1964H58.108V54.9746H44.7637V68.1964ZM47.6802 57.9043H55.1912V65.2669H47.6802V57.9043Z" fill="black"/>
<path d="M19.8568 18.2065H12.9062V21.1362H19.8568V18.2065Z" fill="black"/>
<path d="M38.474 18.2065H31.5234V21.1362H38.474V18.2065Z" fill="black"/>
<path d="M57.0912 18.2065H50.1406V21.1362H57.0912V18.2065Z" fill="black"/>
</svg>
