<svg width="44" height="42" viewBox="0 0 44 42" fill="none" xmlns="http://www.w3.org/2000/svg">
<path d="M31.8377 20.3178C31.9035 23.1246 32.0551 27.2559 31.7191 28.4221C31.383 29.5883 30.197 30.6953 29.189 31.1498C28.181 31.6045 14.7594 31.3475 14.0476 31.1498C13.3359 30.9522 12.2685 29.4301 12.0314 28.8766C11.7943 28.3231 11.9129 14.8025 12.1896 13.676C12.4664 12.5492 13.4349 11.8969 14.3244 11.5016C15.2138 11.1062 24.7877 11.2645 26.5402 11.3434C28.2929 11.4225 29.8478 12.2922 29.9797 13.5967C30.1115 14.9014 29.2019 15.4283 28.1215 15.3361C27.041 15.2439 26.3195 14.2213 26.9371 13.4412C27.5549 12.6611 31.0068 12.4699 31.4814 13.4781C31.9562 14.4863 31.9754 16.9203 31.3232 17.5119C30.6713 18.1035 26.4015 17.2975 25.7469 17.5494C25.0922 17.8014 28.3388 20.3371 26.2187 24.2299C24.8295 26.4695 21.7906 27.5152 19.3744 26.2449C16.7238 24.8512 16.3166 21.4602 17.2297 19.2846C17.3431 19.0141 18.4252 16.5004 20.9656 16.1564C22.4576 15.9545 25.3142 16.6012 24.326 17.4906C23.3377 18.3801 15.3123 17.2732 13.3752 17.6686" stroke="black" stroke-miterlimit="10" stroke-linecap="round" stroke-linejoin="round"/>
<path d="M16.2359 1.84911C4.87771 5.40282 -1.23753 17.6579 2.50271 28.1681C6.15447 38.4296 17.8523 43.6333 28.0701 40.3601C38.4287 37.0417 44.8488 25.7643 41.7449 15.2858C36.7967 -1.0632 20.2127 0.558289 19.5748 0.953993" stroke="black" stroke-miterlimit="10" stroke-linecap="round" stroke-linejoin="round"/>
</svg>
