<svg width="70" height="70" viewBox="0 0 70 70" fill="none" xmlns="http://www.w3.org/2000/svg">
<path d="M64.5312 39.375H61.25V26.25C61.25 23.2345 58.7967 20.7812 55.7812 20.7812H41.5625V1.09375C41.5625 0.49 41.0736 0 40.4688 0H1.09375C0.488906 0 0 0.49 0 1.09375V49.2188V57.9688C0 60.9842 2.45328 63.4375 5.46875 63.4375H6.65C7.18375 67.142 10.3698 70 14.2188 70C18.0677 70 21.2537 67.142 21.7875 63.4375H40.4688H43.8375C44.3713 67.142 47.5573 70 51.4062 70C55.2552 70 58.4412 67.142 58.975 63.4375H64.5312C67.5467 63.4375 70 60.9842 70 57.9688V51.4062V44.8438C70 41.8283 67.5467 39.375 64.5312 39.375ZM2.1875 45.9375H39.375V48.125H2.1875V45.9375ZM2.1875 9.84375V2.1875H39.375V9.84375H37.1875V12.0312H39.375V21.875V43.75H2.1875V12.0312H4.375V9.84375H2.1875ZM14.2188 67.8125C11.2033 67.8125 8.75 65.3592 8.75 62.3438C8.75 59.3283 11.2033 56.875 14.2188 56.875C17.2342 56.875 19.6875 59.3283 19.6875 62.3438C19.6875 65.3592 17.2342 67.8125 14.2188 67.8125ZM39.375 61.25H21.7875C21.2537 57.5455 18.0677 54.6875 14.2188 54.6875C10.3698 54.6875 7.18375 57.5455 6.65 61.25H5.46875C3.65969 61.25 2.1875 59.7778 2.1875 57.9688V50.3125H39.375V61.25ZM51.4062 67.8125C48.3908 67.8125 45.9375 65.3592 45.9375 62.3438C45.9375 59.3283 48.3908 56.875 51.4062 56.875C54.4217 56.875 56.875 59.3283 56.875 62.3438C56.875 65.3592 54.4217 67.8125 51.4062 67.8125ZM64.5312 61.25H58.975C58.4412 57.5455 55.2552 54.6875 51.4062 54.6875C47.5573 54.6875 44.3713 57.5455 43.8375 61.25H41.5625V49.2188V22.9688H55.7812C57.5903 22.9688 59.0625 24.4409 59.0625 26.25V40.4688C59.0625 41.0725 59.5514 41.5625 60.1562 41.5625H64.5312C66.3403 41.5625 67.8125 43.0347 67.8125 44.8438V50.3125H65.625C63.2122 50.3125 61.25 52.2747 61.25 54.6875C61.25 57.1003 63.2122 59.0625 65.625 59.0625H67.6113C67.1584 60.3323 65.9553 61.25 64.5312 61.25ZM67.8125 56.875H65.625C64.4186 56.875 63.4375 55.8939 63.4375 54.6875C63.4375 53.4811 64.4186 52.5 65.625 52.5H67.8125V56.875Z" fill="black"/>
<path d="M55.7812 25.1562H44.8438C44.2389 25.1562 43.75 25.6463 43.75 26.25V36.0938C43.75 36.6975 44.2389 37.1875 44.8438 37.1875H55.7812C56.3861 37.1875 56.875 36.6975 56.875 36.0938V26.25C56.875 25.6463 56.3861 25.1562 55.7812 25.1562ZM54.6875 35H45.9375V27.3438H54.6875V35Z" fill="black"/>
<path d="M48.125 39.375H43.75V41.5625H48.125V39.375Z" fill="black"/>
<path d="M25.1562 52.5H22.9688V54.6875H25.1562V52.5Z" fill="black"/>
<path d="M29.5312 52.5H27.3438V54.6875H29.5312V52.5Z" fill="black"/>
<path d="M33.9062 52.5H31.7188V54.6875H33.9062V52.5Z" fill="black"/>
<path d="M37.1875 7.65625H35V9.84375H37.1875V7.65625Z" fill="black"/>
<path d="M35 9.84375H32.8125V12.0312H35V9.84375Z" fill="black"/>
<path d="M32.8125 7.65625H30.625V9.84375H32.8125V7.65625Z" fill="black"/>
<path d="M30.625 9.84375H28.4375V12.0312H30.625V9.84375Z" fill="black"/>
<path d="M28.4375 7.65625H26.25V9.84375H28.4375V7.65625Z" fill="black"/>
<path d="M26.25 9.84375H24.0625V12.0312H26.25V9.84375Z" fill="black"/>
<path d="M24.0625 7.65625H21.875V9.84375H24.0625V7.65625Z" fill="black"/>
<path d="M21.875 9.84375H19.6875V12.0312H21.875V9.84375Z" fill="black"/>
<path d="M19.6875 7.65625H17.5V9.84375H19.6875V7.65625Z" fill="black"/>
<path d="M17.5 9.84375H15.3125V12.0312H17.5V9.84375Z" fill="black"/>
<path d="M15.3125 7.65625H13.125V9.84375H15.3125V7.65625Z" fill="black"/>
<path d="M13.125 9.84375H10.9375V12.0312H13.125V9.84375Z" fill="black"/>
<path d="M10.9375 7.65625H8.75V9.84375H10.9375V7.65625Z" fill="black"/>
<path d="M8.75 9.84375H6.5625V12.0312H8.75V9.84375Z" fill="black"/>
<path d="M6.5625 7.65625H4.375V9.84375H6.5625V7.65625Z" fill="black"/>
<path d="M7.12687 33.7692C7.29094 33.86 7.47359 33.906 7.65625 33.906C7.85859 33.906 8.05875 33.8502 8.23594 33.7397L15.3125 29.3177V32.8122C15.3125 33.2103 15.528 33.5756 15.8769 33.7692C16.0409 33.86 16.2236 33.906 16.4062 33.906C16.6086 33.906 16.8088 33.8502 16.9859 33.7397L24.0625 29.3177V32.8122C24.0625 33.2103 24.278 33.5756 24.6269 33.7692C24.7909 33.86 24.9736 33.906 25.1562 33.906C25.3586 33.906 25.5588 33.8502 25.7359 33.7397L34.4859 28.271C34.8053 28.0708 35 27.7208 35 27.3435C35 26.9661 34.8053 26.6161 34.4859 26.416L25.7359 20.9472C25.3969 20.7361 24.9714 20.7252 24.6258 20.9188C24.278 21.1113 24.0625 21.4766 24.0625 21.8747V25.3692L16.9859 20.9461C16.6469 20.735 16.2225 20.7241 15.8758 20.9177C15.528 21.1113 15.3125 21.4766 15.3125 21.8747V25.3692L8.23594 20.9461C7.89688 20.735 7.47141 20.7241 7.12578 20.9177C6.77797 21.1113 6.5625 21.4766 6.5625 21.8747V32.8122C6.5625 33.2103 6.77797 33.5756 7.12687 33.7692ZM26.25 23.8478L31.8423 27.3435L26.25 30.8391V23.8478ZM17.5 23.8478L23.0923 27.3435L17.5 30.8391V23.8478ZM8.75 23.8478L14.3423 27.3435L8.75 30.8391V23.8478Z" fill="black"/>
</svg>
