<svg width="24" height="18" viewBox="0 0 24 18" fill="none" xmlns="http://www.w3.org/2000/svg">
<path d="M0 0.399994V1.31639V16.6836V17.6H24V16.6836V1.31639V0.399994H0ZM14.65 9.22559L12.4716 11.4144C12.2068 11.6604 11.7924 11.66 11.5388 11.4248L9.3496 9.22559L9.3688 9.20679L1.4588 1.19999H22.5464L14.6308 9.20719L14.65 9.22559ZM8.2096 9.21319L0.8 16.342V1.76919L8.2096 9.21319ZM8.7736 9.77999L10.9828 11.9996C11.2664 12.264 11.6304 12.3968 11.996 12.3968C12.3652 12.3968 12.736 12.2612 13.0284 11.9888L15.2268 9.77999L22.5216 16.8H1.4744L8.7736 9.77999ZM15.7908 9.21359L23.2 1.76879V16.342L15.7908 9.21359Z" fill="black"/>
</svg>
