<svg width="70" height="70" viewBox="0 0 70 70" fill="none" xmlns="http://www.w3.org/2000/svg">
<g clip-path="url(#clip0)">
<path d="M1.45833 36.0758H4.69583C5.57448 33.0865 7.11227 30.3373 9.19359 28.035C11.2749 25.7327 13.8456 23.9371 16.7125 22.7832C14.805 20.3076 13.7776 17.2553 13.7958 14.1179C13.7958 10.3736 15.2677 6.78265 17.8878 4.13504C20.5078 1.48742 24.0614 0 27.7667 0C31.472 0 35.0255 1.48742 37.6455 4.13504C40.2656 6.78265 41.7375 10.3736 41.7375 14.1179C41.7294 17.4236 40.5616 20.6192 38.4417 23.1368C40.1333 23.6084 42.6417 24.4042 45.8208 25.5832C48.3522 22.0843 51.3341 18.9422 54.6875 16.24C54.9039 16.0671 55.1645 15.9598 55.4388 15.9306C55.7132 15.9013 55.9902 15.9513 56.2376 16.0748C56.4849 16.1982 56.6926 16.39 56.8364 16.628C56.9802 16.8659 57.0543 17.1402 57.05 17.4189V32.4211C59.6264 34.5163 62.0085 36.8446 64.1667 39.3768H68.5417C68.9284 39.3768 69.2994 39.5321 69.5729 39.8085C69.8463 40.0848 70 40.4597 70 40.8505V51.8442C70.001 52.1318 69.9187 52.4135 69.7632 52.6544C69.6077 52.8953 69.3859 53.0849 69.125 53.2L48.8542 62.0421V65.6379C48.8465 66.8002 48.3862 67.9128 47.5728 68.7347C46.7595 69.5566 45.6586 70.0218 44.5083 70.0295H40.0458C38.8956 70.0218 37.7947 69.5566 36.9813 68.7347C36.168 67.9128 35.7076 66.8002 35.7 65.6379V62.4842H24.4708V65.5789C24.4632 66.7413 24.0029 67.8538 23.1895 68.6757C22.3762 69.4976 21.2752 69.9628 20.125 69.9705H15.6625C14.5123 69.9628 13.4113 69.4976 12.598 68.6757C11.7846 67.8538 11.3243 66.7413 11.3167 65.5789V57.7095C8.5905 55.5079 6.48845 52.6174 5.22334 49.3308C3.95824 46.0442 3.57502 42.4781 4.1125 38.9937H1.51666C1.12988 38.9937 0.758949 38.8384 0.485458 38.562C0.211975 38.2857 0.0583267 37.9108 0.0583267 37.52C0.0583267 37.1292 0.211975 36.7543 0.485458 36.4779C0.758949 36.2016 1.12988 36.0463 1.51666 36.0463L1.45833 36.0758ZM27.65 2.94737C25.4637 2.94737 23.3265 3.60251 21.5086 4.82994C19.6908 6.05737 18.2739 7.80197 17.4373 9.84312C16.6006 11.8843 16.3817 14.1303 16.8082 16.2972C17.2348 18.464 18.2876 20.4544 19.8335 22.0166C21.3795 23.5789 23.3491 24.6428 25.4934 25.0738C27.6377 25.5048 29.8604 25.2836 31.8802 24.4381C33.9001 23.5926 35.6265 22.1609 36.8412 20.3239C38.0558 18.4869 38.7042 16.3272 38.7042 14.1179C38.7042 11.1553 37.5395 8.31402 35.4665 6.21914C33.3934 4.12426 30.5817 2.94737 27.65 2.94737ZM13.5917 56L13.7958 56.2358V56.4421C13.8037 56.5303 13.8037 56.6191 13.7958 56.7074C13.8052 56.8054 13.8052 56.9041 13.7958 57.0021V65.5495C13.8033 65.9301 13.9563 66.2931 14.2227 66.5623C14.4891 66.8316 14.8483 66.9861 15.225 66.9937H20.0667C20.4434 66.9861 20.8026 66.8316 21.069 66.5623C21.3354 66.2931 21.4884 65.9301 21.4958 65.5495V60.8337C21.4961 60.6568 21.4961 60.48 21.4958 60.3032L21.6417 60.0674L21.8167 59.8316H22.0208L22.2833 59.6842H22.5458H22.8083H37.1292C37.5159 59.6842 37.8869 59.8395 38.1604 60.1158C38.4338 60.3922 38.5875 60.767 38.5875 61.1579V65.7263C38.595 66.107 38.7479 66.47 39.0143 66.7392C39.2808 67.0084 39.64 67.163 40.0167 67.1705H44.4792C44.8559 67.163 45.2151 67.0084 45.4815 66.7392C45.7479 66.47 45.9009 66.107 45.9083 65.7263V61.04C45.8828 60.8839 45.8828 60.7245 45.9083 60.5684C45.949 60.4851 45.9978 60.4061 46.0542 60.3326C46.1051 60.1904 46.1864 60.0612 46.2922 59.9543C46.3981 59.8473 46.5259 59.7652 46.6667 59.7137L67.0833 50.8716V42.3242H63.4667C63.2427 42.3277 63.021 42.279 62.8186 42.1818C62.6163 42.0847 62.4388 41.9418 62.3 41.7642C60.0273 38.98 57.4654 36.4505 54.6583 34.2189L54.4542 33.9832V33.7768C54.4458 33.6886 54.4458 33.5998 54.4542 33.5116C54.444 33.4136 54.444 33.3148 54.4542 33.2168V20.6316C51.792 22.7403 49.4613 25.2445 47.5417 28.0589C47.433 28.2475 47.2834 28.4088 47.1042 28.5305C46.9096 28.65 46.6896 28.7207 46.4625 28.7368H45.7917C40.7167 26.8505 37.0417 25.7895 35.8458 25.5242C33.3832 27.3627 30.3823 28.3151 27.3216 28.2297C24.261 28.1442 21.3168 27.0257 18.9583 25.0526C15.8952 26.0224 13.155 27.8249 11.0376 30.2629C8.92014 32.7009 7.5071 35.6805 6.95303 38.8756C6.39896 42.0706 6.72521 45.3582 7.89608 48.3785C9.06696 51.3988 11.0373 54.0354 13.5917 56Z" fill="black"/>
<path d="M54.3074 44.1516C52.761 44.1516 51.5074 42.8848 51.5074 41.3221C51.5074 39.7595 52.761 38.4927 54.3074 38.4927C55.8538 38.4927 57.1074 39.7595 57.1074 41.3221C57.1074 42.8848 55.8538 44.1516 54.3074 44.1516Z" fill="black"/>
<path d="M17.85 29.7979H37.4792C37.8659 29.7979 38.2369 29.9531 38.5104 30.2295C38.7839 30.5059 38.9375 30.8807 38.9375 31.2715C38.9375 31.6624 38.7839 32.0372 38.5104 32.3136C38.2369 32.59 37.8659 32.7452 37.4792 32.7452H17.85C17.4632 32.7452 17.0923 32.59 16.8188 32.3136C16.5453 32.0372 16.3917 31.6624 16.3917 31.2715C16.3917 30.8807 16.5453 30.5059 16.8188 30.2295C17.0923 29.9531 17.4632 29.7979 17.85 29.7979Z" fill="black"/>
</g>
<defs>
<clipPath id="clip0">
<rect width="70" height="70" transform="matrix(-1 0 0 1 70 0)" fill="white"/>
</clipPath>
</defs>
</svg>
