<svg width="70" height="70" viewBox="0 0 70 70" fill="none" xmlns="http://www.w3.org/2000/svg">
<path d="M19.834 39.6667H40.834C41.4803 39.6667 42.0007 40.187 42.0007 40.8333C42.0007 41.4797 41.4803 42 40.834 42H19.834C19.1877 42 18.6673 41.4797 18.6673 40.8333C18.6673 40.187 19.1877 39.6667 19.834 39.6667ZM30.334 44.3333C27.7673 44.3333 25.6673 46.4333 25.6673 49C25.6673 51.5667 27.7673 53.6667 30.334 53.6667C32.9007 53.6667 35.0007 51.5667 35.0007 49C35.0007 46.4333 32.9007 44.3333 30.334 44.3333ZM30.334 46.6667C31.636 46.6667 32.6673 47.698 32.6673 49C32.6673 50.302 31.636 51.3333 30.334 51.3333C29.032 51.3333 28.0007 50.302 28.0007 49C28.0007 47.698 29.032 46.6667 30.334 46.6667ZM30.334 28C27.7673 28 25.6673 30.1 25.6673 32.6667C25.6673 35.2333 27.7673 37.3333 30.334 37.3333C32.9007 37.3333 35.0007 35.2333 35.0007 32.6667C35.0007 30.1 32.9007 28 30.334 28ZM30.334 30.3333C31.636 30.3333 32.6673 31.3647 32.6673 32.6667C32.6673 33.9687 31.636 35 30.334 35C29.032 35 28.0007 33.9687 28.0007 32.6667C28.0007 31.3647 29.032 30.3333 30.334 30.3333ZM58.334 7C55.7673 7 53.6673 9.1 53.6673 11.6667C53.6673 14.2333 55.7673 16.3333 58.334 16.3333C60.9007 16.3333 63.0007 14.2333 63.0007 11.6667C63.0007 9.1 60.9007 7 58.334 7ZM58.334 9.33333C59.636 9.33333 60.6673 10.3647 60.6673 11.6667C60.6673 12.9687 59.636 14 58.334 14C57.032 14 56.0007 12.9687 56.0007 11.6667C56.0007 10.3647 57.032 9.33333 58.334 9.33333ZM1.04133 36.5633C-0.328336 37.9167 -0.319002 40.1613 1.04133 41.5193L28.4813 68.9593C29.8347 70.3173 32.0793 70.329 33.435 68.9593L67.329 34.65C67.9053 34.0667 68.5703 33.53 69.121 32.6527C69.6693 31.7753 69.9983 30.6227 69.9983 29.05V3.5C69.9983 1.57967 68.4163 0 66.4983 0H40.8317C38.1297 0 36.5757 1.456 35.3483 2.67167L1.04133 36.5633ZM2.68166 38.2247L36.984 4.33067C38.2277 3.10333 38.8693 2.33333 40.834 2.33333H66.5007C67.1657 2.33333 67.6673 2.83267 67.6673 3.5V29.0547C67.6673 30.331 67.4503 30.933 67.1447 31.4183C66.8413 31.9083 66.342 32.3377 65.6747 33.0143L31.7713 67.3143C31.3117 67.781 30.6047 67.781 30.131 67.3097L2.691 39.8697C2.21733 39.396 2.21266 38.6843 2.68166 38.2223V38.2247Z" fill="black"/>
</svg>
