<svg width="40" height="37" viewBox="0 0 40 37" fill="none" xmlns="http://www.w3.org/2000/svg">
<path fill-rule="evenodd" clip-rule="evenodd" d="M1.33333 23.8961C1.33333 23.4706 1.632 23.1252 2 23.1252H3.89333L3.61133 20.9261C3.55733 20.5052 3.80867 20.1128 4.17267 20.0504C4.53933 19.991 4.87667 20.2786 4.93067 20.6994L5.242 23.1252H10C10.368 23.1252 10.6667 23.4706 10.6667 23.8961C10.6667 24.3216 10.368 24.6669 10 24.6669H2C1.632 24.6669 1.33333 24.3216 1.33333 23.8961ZM2 16.9586H3.03933L2.75733 14.7594C2.70333 14.3385 2.95467 13.9462 3.31867 13.8837C3.68533 13.8251 4.02267 14.1119 4.076 14.5328L4.388 16.9586H10C10.368 16.9586 10.6667 17.3039 10.6667 17.7294C10.6667 18.1549 10.368 18.5002 10 18.5002H2C1.632 18.5002 1.33333 18.1549 1.33333 17.7294C1.33333 17.3039 1.632 16.9586 2 16.9586ZM10 32.3752C9.63267 32.3752 9.33333 32.0291 9.33333 31.6044C9.33333 31.1797 9.63267 30.8336 10 30.8336C10.3673 30.8336 10.6667 31.1797 10.6667 31.6044C10.6667 32.0291 10.3673 32.3752 10 32.3752ZM10 29.2919C8.89733 29.2919 8 30.3295 8 31.6044C8 32.8794 8.89733 33.9169 10 33.9169C11.1027 33.9169 12 32.8794 12 31.6044C12 30.3295 11.1027 29.2919 10 29.2919ZM32.6667 32.3752C32.2993 32.3752 32 32.0291 32 31.6044C32 31.1797 32.2993 30.8336 32.6667 30.8336C33.034 30.8336 33.3333 31.1797 33.3333 31.6044C33.3333 32.0291 33.034 32.3752 32.6667 32.3752ZM32.6667 29.2919C31.564 29.2919 30.6667 30.3295 30.6667 31.6044C30.6667 32.8794 31.564 33.9169 32.6667 33.9169C33.7693 33.9169 34.6667 32.8794 34.6667 31.6044C34.6667 30.3295 33.7693 29.2919 32.6667 29.2919ZM32.6667 35.4586C30.8287 35.4586 29.3333 33.7296 29.3333 31.6044C29.3333 29.4792 30.8287 27.7502 32.6667 27.7502C34.5047 27.7502 36 29.4792 36 31.6044C36 33.7296 34.5047 35.4586 32.6667 35.4586ZM39.138 19.4969L37.3107 17.3841L36.6667 8.47941C36.6667 6.35422 35.1713 4.62524 33.3333 4.62524H28.6667C28.2987 4.62524 28 4.97058 28 5.39608C28 5.82158 28.2987 6.16691 28.6667 6.16691H33.3333C34.4173 6.16691 35.3333 7.22604 35.3353 8.54339L35.942 16.9586H33.7453L34.5967 14.9906C34.7613 14.6098 34.6273 14.1473 34.298 13.9562C33.968 13.7658 33.5687 13.9207 33.4033 14.3015L32.2547 16.9586H28.6667C28.2987 16.9586 28 17.3039 28 17.7294C28 18.1549 28.2987 18.5002 28.6667 18.5002H36.3907L38.1953 20.5869C38.5753 21.0263 38.6653 22.0368 38.6667 22.3544V30.8336H37.28C36.9553 28.2228 35.0133 26.2086 32.6667 26.2086C30.0933 26.2086 28 28.629 28 31.6044C28 34.5798 30.0933 37.0002 32.6667 37.0002C35.0133 37.0002 36.9553 34.9861 37.28 32.3752H39.3333C39.7013 32.3752 40 32.0299 40 31.6044V22.3544C40 22.164 39.976 20.4651 39.138 19.4969ZM10 35.4586C8.162 35.4586 6.66667 33.7296 6.66667 31.6044C6.66667 29.4792 8.162 27.7502 10 27.7502C11.838 27.7502 13.3333 29.4792 13.3333 31.6044C13.3333 33.7296 11.838 35.4586 10 35.4586ZM26 0.000244141H4.66667C2.82867 0.000244141 1.33333 1.72922 1.33333 3.85441C1.33333 3.89295 1.336 3.93072 1.34067 3.96849L2.226 10.7919H0.666667C0.298667 10.7919 0 11.1372 0 11.5627C0 11.9882 0.298667 12.3336 0.666667 12.3336H10C10.368 12.3336 10.6667 11.9882 10.6667 11.5627C10.6667 11.1372 10.368 10.7919 10 10.7919H3.574L2.66733 3.80122C2.692 2.55093 3.57933 1.54191 4.66667 1.54191H25.3333V30.8336H14.6133C14.2887 28.2228 12.3467 26.2086 10 26.2086C7.42667 26.2086 5.33333 28.629 5.33333 31.6044C5.33333 34.5798 7.42667 37.0002 10 37.0002C12.3467 37.0002 14.2887 34.9861 14.6133 32.3752H26C26.368 32.3752 26.6667 32.0299 26.6667 31.6044V0.771078C26.6667 0.345577 26.368 0.000244141 26 0.000244141Z" fill="black"/>
</svg>
