<svg width="40" height="40" viewBox="0 0 40 40" fill="none" xmlns="http://www.w3.org/2000/svg">
<path d="M34.1373 35.0701H5.86133C5.59611 35.0701 5.34176 34.9647 5.15422 34.7772C4.96668 34.5897 4.86133 34.3353 4.86133 34.0701C4.86133 33.8049 4.96668 33.5505 5.15422 33.363C5.34176 33.1754 5.59611 33.0701 5.86133 33.0701H34.1373C34.4025 33.0701 34.6569 33.1754 34.8444 33.363C35.032 33.5505 35.1373 33.8049 35.1373 34.0701C35.1373 34.3353 35.032 34.5897 34.8444 34.7772C34.6569 34.9647 34.4025 35.0701 34.1373 35.0701Z" fill="black"/>
<path d="M20.0008 18.4302C18.6591 18.4302 17.3474 18.0323 16.2318 17.2868C15.1162 16.5414 14.2467 15.4819 13.7332 14.2423C13.2197 13.0027 13.0854 11.6386 13.3472 10.3227C13.6089 9.0067 14.255 7.79791 15.2038 6.84915C16.1525 5.90039 17.3613 5.25427 18.6773 4.99251C19.9933 4.73075 21.3573 4.8651 22.5969 5.37856C23.8365 5.89203 24.8961 6.76155 25.6415 7.87717C26.3869 8.99279 26.7848 10.3044 26.7848 11.6462C26.7806 13.4441 26.0645 15.1672 24.7931 16.4385C23.5218 17.7098 21.7987 18.4259 20.0008 18.4302ZM20.0008 6.86216C19.0546 6.86216 18.1297 7.14274 17.343 7.66841C16.5562 8.19408 15.9431 8.94124 15.581 9.8154C15.2189 10.6896 15.1241 11.6515 15.3087 12.5795C15.4933 13.5075 15.9489 14.3599 16.618 15.029C17.2871 15.698 18.1395 16.1536 19.0675 16.3382C19.9955 16.5228 20.9574 16.4281 21.8316 16.066C22.7057 15.7039 23.4529 15.0907 23.9786 14.304C24.5042 13.5173 24.7848 12.5923 24.7848 11.6462C24.7832 10.3779 24.2787 9.16194 23.3818 8.26511C22.485 7.36828 21.2691 6.86375 20.0008 6.86216Z" fill="black"/>
<path d="M30 35.0698C29.7348 35.0698 29.4804 34.9645 29.2929 34.7769C29.1054 34.5894 29 34.335 29 34.0698V25.9638C29 23.3638 24.878 21.1798 20 21.1798C15.122 21.1798 11 23.3698 11 25.9638V34.0698C11 34.335 10.8946 34.5894 10.7071 34.7769C10.5196 34.9645 10.2652 35.0698 10 35.0698C9.73478 35.0698 9.48043 34.9645 9.29289 34.7769C9.10536 34.5894 9 34.335 9 34.0698V25.9638C9 22.1638 13.832 19.1798 20 19.1798C26.168 19.1798 31 22.1598 31 25.9638V34.0698C31 34.335 30.8946 34.5894 30.7071 34.7769C30.5196 34.9645 30.2652 35.0698 30 35.0698Z" fill="black"/>
</svg>
