<svg width="50" height="50" viewBox="0 0 50 50" fill="none" xmlns="http://www.w3.org/2000/svg">
<path d="M30.2094 0H19.7906C8.87802 0 0 8.11406 0 18.0869V26.6659C0 34.0928 4.99271 40.7674 12.5 43.4863V49.0478C12.5 49.4244 12.7426 49.7657 13.1195 49.9182C13.2548 49.9731 13.3987 50 13.5417 50C13.795 50 14.0457 49.9154 14.241 49.7537L20.2809 44.7528H30.2094C41.122 44.7528 50 36.6387 50 26.6659V18.0869C50 8.11406 41.122 0 30.2094 0ZM47.9167 26.6659C47.9167 35.5889 39.9734 42.8484 30.2094 42.8484H19.8792C19.6207 42.8484 19.3716 42.9358 19.1798 43.0948L14.5833 46.9008V42.8261C14.5833 42.4225 14.3051 42.0627 13.8885 41.9288C6.82781 39.6469 2.08333 33.5135 2.08333 26.6659V18.0869C2.08333 9.16385 10.0266 1.90437 19.7906 1.90437H30.2094C39.9734 1.90437 47.9167 9.16385 47.9167 18.0869V26.6659Z" fill="#FF2C06"/>
<path d="M38.7662 29.0354L32.3636 25.234C31.6632 24.8184 30.8306 24.677 30.0143 24.8314C29.1974 24.9886 28.4959 25.4293 28.0402 26.0719L27.7392 26.4949C24.9681 25.658 21.9128 24.5886 20.0839 19.7487L20.8412 19.1471H20.8417C22.1413 18.114 22.278 16.3063 21.1474 15.1161L16.139 9.84926C15.7615 9.45229 15.1033 9.41135 14.669 9.75537L11.5247 12.2539C8.76584 14.4457 10.0552 17.6881 10.479 18.7537C10.4977 18.8012 10.5206 18.8468 10.5476 18.8913C10.657 19.0708 13.2688 23.3306 17.4857 27.2574C21.7201 31.2001 29.3652 34.8414 29.5997 34.9474C30.473 35.4654 31.4552 35.7136 32.4267 35.7136C34.1326 35.7136 35.8059 34.9493 36.8033 33.547L39.0724 30.353C39.3856 29.9113 39.2483 29.3217 38.7662 29.0354ZM35.0563 32.5093C34.1173 33.8307 32.1784 34.2063 30.6465 33.3034C30.5702 33.2672 22.9758 29.6518 18.9725 25.924C15.2311 22.4397 12.7469 18.5697 12.4076 18.0294C11.5821 15.9149 11.7281 14.6149 12.8908 13.6915L15.2498 11.8178L19.5747 16.3658C19.9587 16.7694 19.9145 17.3598 19.4745 17.7095L18.1964 18.7249C17.885 18.9723 17.7624 19.3637 17.884 19.7236C20.0634 26.1964 24.3008 27.4676 27.3948 28.3965L27.8454 28.5322C28.2962 28.6717 28.7905 28.5127 29.0483 28.1482L29.7874 27.1086C29.94 26.8938 30.1729 26.7478 30.4436 26.6957C30.7151 26.6428 30.9928 26.692 31.2283 26.8315L36.7576 30.114L35.0563 32.5093Z" fill="#FF2C06"/>
<path d="M27.378 15.4704C26.8236 15.3244 26.2479 15.6192 26.0907 16.1259C25.9335 16.6318 26.2545 17.1581 26.8074 17.3022C28.3597 17.7058 29.5956 18.8384 30.0335 20.2583C30.1628 20.6776 30.5808 20.952 31.0356 20.952C31.1291 20.952 31.2242 20.9408 31.3188 20.9166C31.8723 20.7734 32.1948 20.248 32.0385 19.7413C31.4063 17.69 29.6201 16.0534 27.378 15.4704Z" fill="#FF2C06"/>
<path d="M35.3044 21.1563C35.3979 21.1563 35.493 21.1451 35.5877 21.121C36.1416 20.9777 36.4636 20.4515 36.3074 19.9457C35.0786 15.963 31.6102 12.7856 27.2564 11.6531C26.703 11.5071 26.1267 11.8037 25.9696 12.3087C25.8124 12.8145 26.1334 13.3407 26.6867 13.4849C30.3498 14.4371 33.2684 17.1114 34.3024 20.4626C34.4321 20.8821 34.8497 21.1563 35.3044 21.1563Z" fill="#FF2C06"/>
<path d="M26.8077 7.21957C26.2533 7.0736 25.6776 7.3684 25.5204 7.87515C25.3632 8.38105 25.6841 8.90733 26.2371 9.05149C32.4449 10.6657 37.3892 15.196 39.1409 20.8738C39.2701 21.2932 39.6882 21.5675 40.1429 21.5675C40.2365 21.5675 40.3317 21.5564 40.4262 21.5322C40.9796 21.389 41.3021 20.8627 41.1459 20.3568C39.1994 14.0476 33.7052 9.01426 26.8077 7.21957Z" fill="#FF2C06"/>
</svg>
