<svg width="43" height="43" viewBox="0 0 43 43" fill="none" xmlns="http://www.w3.org/2000/svg">
<path d="M22.8646 41.4646C34.7164 40.3806 43.2734 29.6869 41.8287 18.625C40.4182 7.82476 30.0771 0.27593 19.3992 1.32593C8.57421 2.39019 -0.0752045 12.064 0.754288 22.9611C2.15136 39.9853 18.7053 41.89 19.4121 41.6375" stroke="black" stroke-miterlimit="10" stroke-linecap="round" stroke-linejoin="round"/>
<path d="M15.6502 15.9816C15.5897 15.5404 16.9721 15.0572 18.2116 14.874C20.4672 14.5406 22.3563 15.4971 22.5034 16.0508C22.6504 16.6047 22.3477 22.0731 23.2649 22.1426C24.1821 22.2119 26.8127 16.2932 27.4184 15.7738C28.0241 15.2547 33.5793 15.4104 33.5793 15.9814C33.5793 16.5525 28.8635 22.0125 28.8721 22.9039C28.8807 23.7951 34.3409 28.4504 33.8563 29.1342C33.3717 29.8178 27.5534 29.8451 27.2799 29.6188C27.0065 29.3924 24.8139 26.0971 23.6803 26.2959C22.5467 26.4949 23.3254 29.5666 22.9881 29.9648C22.6508 30.3631 20.7209 30.2764 19.1807 30.0342C10.995 28.4939 6.07993 16.2758 6.51274 15.6355C6.94536 14.9953 11.9643 15.324 12.4661 15.7049C12.9678 16.0857 14.9409 23.2504 17.1733 22.6273C17.7704 22.3418 17.5194 17.5047 17.5194 17.5047" stroke="black" stroke-miterlimit="10" stroke-linecap="round" stroke-linejoin="round"/>
</svg>
