<svg width="50" height="50" viewBox="0 0 50 50" fill="none" xmlns="http://www.w3.org/2000/svg">
<path d="M25 0C11.2145 0 0 11.2145 0 25C0 29.7025 1.30709 34.268 3.78507 38.2324C2.79825 41.6927 1.01411 48.2365 0.99536 48.3051C0.903341 48.6432 1.00192 49.0046 1.2545 49.2487C1.50709 49.492 1.87238 49.5784 2.20565 49.477L12.115 46.4281C15.9968 48.7662 20.4421 50 25 50C38.7855 50 50 38.7855 50 25C50 11.2145 38.7855 0 25 0ZM25 48.0769C20.6552 48.0769 16.4222 46.8628 12.7582 44.566C12.6032 44.4692 12.4258 44.4195 12.2474 44.4195C12.1526 44.4195 12.0568 44.4336 11.9648 44.4617L3.3118 47.1248C3.94757 44.8045 5.08942 40.6541 5.75228 38.3461C5.8293 38.0785 5.78613 37.7902 5.63498 37.5563C3.20673 33.8201 1.92308 29.4781 1.92308 25C1.92308 12.2756 12.2756 1.92308 25 1.92308C37.7244 1.92308 48.0769 12.2756 48.0769 25C48.0769 37.7244 37.7244 48.0769 25 48.0769Z" fill="#FF2C06"/>
<path d="M41.3321 30.8903C39.5573 29.9044 38.0456 28.9165 36.9422 28.1953C36.0999 27.6451 35.4914 27.2479 35.0455 27.0245C33.7985 26.4019 32.8529 26.8422 32.4933 27.2047C32.4482 27.2497 32.4078 27.2986 32.3731 27.3512C31.0782 29.294 29.386 31.1532 28.8912 31.2527C28.3193 31.1636 25.6414 29.6414 22.9792 27.4245C20.2618 25.1596 18.5528 22.9914 18.3011 21.5153C20.0449 19.7209 20.6731 18.5922 20.6731 17.3076C20.6731 15.9836 17.5847 10.4557 17.026 9.89706C16.4654 9.33735 15.2034 9.25004 13.2728 9.63408C13.0869 9.67168 12.916 9.76273 12.7817 9.89706C12.5479 10.1308 7.08105 15.7048 9.67922 22.4609C12.531 29.8752 19.8514 38.4934 29.1842 39.8935C30.2443 40.0522 31.2387 40.131 32.1702 40.131C37.6606 40.131 40.901 37.3685 41.8137 31.8885C41.8805 31.4875 41.688 31.0875 41.3321 30.8903ZM29.4696 37.991C19.6008 36.5112 13.3835 26.7333 11.4746 21.7698C9.58067 16.8466 13.0737 12.4577 13.9508 11.4651C14.6644 11.3441 15.4147 11.2933 15.7283 11.3422C16.3828 12.253 18.6505 16.5367 18.75 17.3076C18.75 17.8128 18.5857 18.5152 16.6279 20.474C16.4476 20.6543 16.3462 20.8984 16.3462 21.1538C16.3462 26.1887 26.9653 33.173 28.8462 33.173C30.4819 33.173 32.6143 30.4236 33.8285 28.6329C33.8989 28.6357 34.0172 28.6601 34.1853 28.7447C34.5318 28.9184 35.1318 29.3099 35.8906 29.8057C36.8925 30.4602 38.2231 31.3298 39.7939 32.2302C39.0804 35.6632 37.0868 39.1357 29.4696 37.991Z" fill="#FF2C06"/>
</svg>
